<?xml version="1.0" standalone="no"?>
<!DOCTYPE svg PUBLIC "-//W3C//DTD SVG 1.1//EN"
"http://www.w3.org/Graphics/SVG/1.1/DTD/svg11.dtd">

<svg width="302" height="304" view_box="0 0 302 304"
xmlns="http://www.w3.org/2000/svg"
xmlns:link="http://www.w3.org/1999/xlink">\n\n<desc>Généré par Mocodo 2.3.7 le Mon, 12 Jul 2021 05:10:01</desc>

<rect id="frame" x="0" y="0" width="302" height="304" fill="#f7f7f7" stroke="none" stroke-width="0"/>

<!-- Association Reviews -->
<line x1="49" y1="43" x2="164" y2="43" stroke="#8073ac" stroke-width="2"/>
<text x="90" y="60.0" fill="#b35806" font-family="Verdana" font-size="12">0,N</text>
<line x1="164" y1="144" x2="164" y2="43" stroke="#8073ac" stroke-width="2"/>
<text x="169.0" y="94" fill="#b35806" font-family="Verdana" font-size="12">0,N</text>
<g id="association-Reviews">
	<path d="M 186 9 a 14 14 90 0 1 14 14 V 34 h -72 V 23 a 14 14 90 0 1 14 -14" fill="#b2abd2" stroke="#b2abd2" stroke-width="0"/>
	<path d="M 200 34.0 v 29 a 14 14 90 0 1 -14 14 H 142 a 14 14 90 0 1 -14 -14 V 34.0 H 72" fill="#d8daeb" stroke="#d8daeb" stroke-width="0"/>
	<rect x="128" y="9" width="72" height="68" fill="none" rx="14" stroke="#8073ac" stroke-width="2"/>
	<line x1="128" y1="34" x2="200" y2="34" stroke="#8073ac" stroke-width="1"/>
	<text x="139" y="26.7" fill="#000000" font-family="Verdana" font-size="12">Reviews</text>
	<text x="135" y="51.8" fill="#000000" font-family="Verdana" font-size="12">comment</text>
	<text x="135" y="68.8" fill="#000000" font-family="Verdana" font-size="12">rating</text>
</g>

<!-- Association Plays -->
<line x1="256" y1="253" x2="164" y2="253" stroke="#8073ac" stroke-width="2"/>
<text x="192" y="270.0" fill="#b35806" font-family="Verdana" font-size="12">0,N</text>
<line x1="164" y1="144" x2="164" y2="253" stroke="#8073ac" stroke-width="2"/>
<text x="169.0" y="203" fill="#b35806" font-family="Verdana" font-size="12">0,N</text>
<g id="association-Plays">
	<path d="M 173 228 a 14 14 90 0 1 14 14 V 253 h -46 V 242 a 14 14 90 0 1 14 -14" fill="#b2abd2" stroke="#b2abd2" stroke-width="0"/>
	<path d="M 187 253.0 v 11 a 14 14 90 0 1 -14 14 H 155 a 14 14 90 0 1 -14 -14 V 253.0 H 46" fill="#d8daeb" stroke="#d8daeb" stroke-width="0"/>
	<rect x="141" y="228" width="46" height="50" fill="none" rx="14" stroke="#8073ac" stroke-width="2"/>
	<line x1="141" y1="253" x2="187" y2="253" stroke="#8073ac" stroke-width="1"/>
	<text x="148" y="245.7" fill="#000000" font-family="Verdana" font-size="12">Plays</text>
	<text x="148" y="270.8" fill="#000000" font-family="Verdana" font-size="12">role</text>
</g>

<!-- Association Belongs to -->
<line x1="164" y1="144" x2="49" y2="144" stroke="#8073ac" stroke-width="2"/>
<text x="94" y="161.0" fill="#b35806" font-family="Verdana" font-size="12">1,N</text>
<line x1="49" y1="253" x2="49" y2="144" stroke="#8073ac" stroke-width="2"/>
<text x="54.0" y="211" fill="#b35806" font-family="Verdana" font-size="12">0,N</text>
<g id="association-Belongs to">
	<path d="M 75 119 a 14 14 90 0 1 14 14 V 144 h -80 V 133 a 14 14 90 0 1 14 -14" fill="#b2abd2" stroke="#b2abd2" stroke-width="0"/>
	<path d="M 89 144.0 v 11 a 14 14 90 0 1 -14 14 H 23 a 14 14 90 0 1 -14 -14 V 144.0 H 80" fill="#d8daeb" stroke="#d8daeb" stroke-width="0"/>
	<rect x="9" y="119" width="80" height="50" fill="none" rx="14" stroke="#8073ac" stroke-width="2"/>
	<line x1="9" y1="144" x2="89" y2="144" stroke="#8073ac" stroke-width="1"/>
	<text x="16" y="136.7" fill="#000000" font-family="Verdana" font-size="12">Belongs to</text>
</g>

<!-- Entity GENRE -->
<g id="entity-GENRE">
	<g id="frame-GENRE">
		<rect x="10" y="219" width="78" height="25" fill="#fdb863" stroke="#fdb863" stroke-width="0"/>
		<rect x="10" y="244.0" width="78" height="43" fill="#fee0b6" stroke="#fee0b6" stroke-width="0"/>
		<rect x="10" y="219" width="78" height="68" fill="none" stroke="#e08214" stroke-width="2"/>
		<line x1="10" y1="244" x2="88" y2="244" stroke="#e08214" stroke-width="1"/>
	</g>
	<text x="27" y="236.7" fill="#000000" font-family="Verdana" font-size="12">GENRE</text>
	<text x="15" y="261.8" fill="#000000" font-family="Verdana" font-size="12">genre code</text>
	<line x1="15" y1="264" x2="83" y2="264" stroke="#000000" stroke-width="1"/>
	<text x="15" y="278.8" fill="#000000" font-family="Verdana" font-size="12">name</text>
</g>

<!-- Entity MOVIE -->
<g id="entity-MOVIE">
	<g id="frame-MOVIE">
		<rect x="121" y="102" width="86" height="25" fill="#fdb863" stroke="#fdb863" stroke-width="0"/>
		<rect x="121" y="127.0" width="86" height="59" fill="#fee0b6" stroke="#fee0b6" stroke-width="0"/>
		<rect x="121" y="102" width="86" height="84" fill="none" stroke="#e08214" stroke-width="2"/>
		<line x1="121" y1="127" x2="207" y2="127" stroke="#e08214" stroke-width="1"/>
	</g>
	<text x="143" y="119.7" fill="#000000" font-family="Verdana" font-size="12">MOVIE</text>
	<text x="126" y="144.8" fill="#000000" font-family="Verdana" font-size="12">ISAN</text>
	<line x1="126" y1="147" x2="157" y2="147" stroke="#000000" stroke-width="1"/>
	<text x="126" y="161.8" fill="#000000" font-family="Verdana" font-size="12">title</text>
	<text x="126" y="178.8" fill="#000000" font-family="Verdana" font-size="12">release date</text>
</g>

<!-- Entity USER -->
<g id="entity-USER">
	<g id="frame-USER">
		<rect x="13" y="9" width="72" height="25" fill="#fdb863" stroke="#fdb863" stroke-width="0"/>
		<rect x="13" y="34.0" width="72" height="43" fill="#fee0b6" stroke="#fee0b6" stroke-width="0"/>
		<rect x="13" y="9" width="72" height="68" fill="none" stroke="#e08214" stroke-width="2"/>
		<line x1="13" y1="34" x2="85" y2="34" stroke="#e08214" stroke-width="1"/>
	</g>
	<text x="32" y="26.7" fill="#000000" font-family="Verdana" font-size="12">USER</text>
	<text x="18" y="51.8" fill="#000000" font-family="Verdana" font-size="12">email</text>
	<line x1="18" y1="54" x2="52" y2="54" stroke="#000000" stroke-width="1"/>
	<text x="18" y="68.8" fill="#000000" font-family="Verdana" font-size="12">username</text>
</g>

<!-- Entity ACTOR -->
<g id="entity-ACTOR">
	<g id="frame-ACTOR">
		<rect x="219" y="211" width="74" height="25" fill="#fdb863" stroke="#fdb863" stroke-width="0"/>
		<rect x="219" y="236.0" width="74" height="59" fill="#fee0b6" stroke="#fee0b6" stroke-width="0"/>
		<rect x="219" y="211" width="74" height="84" fill="none" stroke="#e08214" stroke-width="2"/>
		<line x1="219" y1="236" x2="293" y2="236" stroke="#e08214" stroke-width="1"/>
	</g>
	<text x="234" y="228.7" fill="#000000" font-family="Verdana" font-size="12">ACTOR</text>
	<text x="224" y="253.8" fill="#000000" font-family="Verdana" font-size="12">actor code</text>
	<line x1="224" y1="256" x2="288" y2="256" stroke="#000000" stroke-width="1"/>
	<text x="224" y="270.8" fill="#000000" font-family="Verdana" font-size="12">firstname</text>
	<text x="224" y="287.8" fill="#000000" font-family="Verdana" font-size="12">lastname</text>
</g>
</svg>